<?xml version="1.0" encoding="utf-8"?>
<!-- Generator: Adobe Illustrator 26.0.1, SVG Export Plug-In . SVG Version: 6.00 Build 0)  -->
<svg version="1.1" id="Layer_1" xmlns="http://www.w3.org/2000/svg" xmlns:xlink="http://www.w3.org/1999/xlink" x="0px" y="0px"
	 viewBox="0 0 595.3 167.3" style="enable-background:new 0 0 595.3 167.3;" xml:space="preserve">
<style type="text/css">
	.st0{fill:#FF4500;}
	.st1{fill-rule:evenodd;clip-rule:evenodd;fill:#273F87;}
	.st2{fill-rule:evenodd;clip-rule:evenodd;fill:#FF4500;}
	.st3{fill:#273F87;}
	.st4{fill-rule:evenodd;clip-rule:evenodd;fill:#2048C2;}
	.st5{fill:#2048C2;}
	.st6{fill-rule:evenodd;clip-rule:evenodd;fill:#4169E2;}
	.st7{fill:#4169E2;}
	.st8{fill:#1D1D1B;}
	.st9{fill-rule:evenodd;clip-rule:evenodd;fill:#1D1D1B;}
	.st10{fill:#FFFFFF;}
	.st11{fill-rule:evenodd;clip-rule:evenodd;fill:#FFFFFF;}
	.st12{fill-rule:evenodd;clip-rule:evenodd;fill:#606062;}
</style>
<g>
	<g>
		<path class="st8" d="M57.3,121.4v1.5h-8.5c-0.4,0-0.8,0.1-1.1,0.4c-0.3,0.3-0.4,0.6-0.4,1v6.2c0,0.4,0.1,0.8,0.4,1
			c0.3,0.3,0.6,0.4,1.1,0.4h8.5v1.5h-8.9c-0.8,0-1.4-0.3-1.9-0.8c-0.5-0.5-0.8-1.2-0.8-1.9v-6.7c0-0.8,0.3-1.4,0.8-1.9
			c0.5-0.5,1.2-0.8,1.9-0.8H57.3z"/>
	</g>
	<g>
		<path class="st8" d="M78.4,121.4c0.8,0,1.4,0.3,2,0.8c0.5,0.5,0.8,1.2,0.8,1.9v6.7c0,0.8-0.3,1.4-0.8,1.9c-0.5,0.5-1.2,0.8-2,0.8
			H71c-0.8,0-1.4-0.3-1.9-0.8c-0.5-0.5-0.8-1.2-0.8-1.9v-6.7c0-0.8,0.3-1.4,0.8-1.9c0.5-0.5,1.2-0.8,1.9-0.8H78.4z M70.3,123.3
			c-0.3,0.3-0.4,0.6-0.4,1.1v6.2c0,0.4,0.1,0.8,0.4,1c0.3,0.3,0.6,0.4,1,0.4H78c0.4,0,0.8-0.1,1.1-0.4c0.3-0.3,0.4-0.6,0.4-1v-6.2
			c0-0.4-0.1-0.8-0.4-1c-0.3-0.3-0.6-0.4-1.1-0.4h-6.6C71,122.9,70.6,123,70.3,123.3z"/>
	</g>
	<g>
		<path class="st8" d="M105.4,133.6H104l-9.6-9.5v9.5h-1.7v-12.2h1.3l9.6,9.4v-9.4h1.7V133.6z"/>
	</g>
	<g>
		<path class="st8" d="M129.5,133.6h-1.3l-9.6-9.5v9.5h-1.7v-12.2h1.3l9.6,9.4v-9.4h1.7V133.6z"/>
	</g>
	<g>
		<path class="st8" d="M152.6,121.4v1.5h-8.5c-0.4,0-0.8,0.1-1,0.4c-0.3,0.3-0.4,0.6-0.4,1v2.1h8.3v1.5h-8.3v2.5
			c0,0.4,0.1,0.8,0.4,1c0.3,0.3,0.6,0.4,1,0.4h8.5v1.5h-8.9c-0.8,0-1.4-0.3-1.9-0.8c-0.5-0.5-0.8-1.2-0.8-1.9v-6.7
			c0-0.8,0.3-1.4,0.8-1.9c0.5-0.5,1.2-0.8,1.9-0.8H152.6z"/>
	</g>
	<g>
		<path class="st8" d="M175.5,121.4v1.5h-8.5c-0.4,0-0.8,0.1-1.1,0.4c-0.3,0.3-0.4,0.6-0.4,1v6.2c0,0.4,0.1,0.8,0.4,1
			c0.3,0.3,0.6,0.4,1.1,0.4h8.5v1.5h-8.9c-0.8,0-1.4-0.3-2-0.8c-0.5-0.5-0.8-1.2-0.8-1.9v-6.7c0-0.8,0.3-1.4,0.8-1.9
			c0.5-0.5,1.2-0.8,2-0.8H175.5z"/>
	</g>
	<g>
		<path class="st8" d="M198.2,121.4v1.5h-5v10.7h-1.7v-10.7h-5v-1.5H198.2z"/>
	</g>
	<g>
		<path class="st8" d="M210.1,132v1.5h-1.7V132H210.1z"/>
	</g>
	<g>
		<path class="st8" d="M233.2,121.4v1.5h-8c-0.4,0-0.8,0.1-1.1,0.4c-0.3,0.3-0.4,0.6-0.4,1v0.6c0,0.4,0.1,0.8,0.4,1
			c0.3,0.3,0.6,0.4,1.1,0.4h6.1c0.8,0,1.4,0.3,1.9,0.8s0.8,1.2,0.8,1.9v1.6c0,0.8-0.3,1.4-0.8,1.9c-0.5,0.5-1.2,0.8-1.9,0.8h-8.8
			v-1.5h8.4c0.4,0,0.8-0.1,1.1-0.4c0.3-0.3,0.4-0.6,0.4-1v-1.1c0-0.4-0.1-0.8-0.4-1c-0.3-0.3-0.6-0.4-1.1-0.4h-6.1
			c-0.8,0-1.4-0.3-1.9-0.8c-0.5-0.5-0.8-1.2-0.8-1.9v-1.2c0-0.8,0.3-1.4,0.8-1.9c0.5-0.5,1.2-0.8,1.9-0.8H233.2z"/>
	</g>
	<g>
		<path class="st8" d="M245.5,121.4h1.7v12.2h-1.7V121.4z"/>
	</g>
	<g>
		<path class="st8" d="M274.4,121.4v12.2h-1.7V125l-5.3,8.3h-1.6l-5.3-8.3v8.6H259v-12.2h1.4l6.3,10l6.3-10H274.4z"/>
	</g>
	<g>
		<path class="st8" d="M287.7,121.4h7.1c0.8,0,1.4,0.3,1.9,0.8c0.5,0.5,0.8,1.2,0.8,1.9v2c0,0.8-0.3,1.4-0.8,1.9
			c-0.5,0.5-1.2,0.8-1.9,0.8h-7.1v4.7H286v-4.7v-7.5H287.7z M287.7,127.4h6.7c0.4,0,0.8-0.1,1.1-0.4c0.3-0.3,0.4-0.6,0.4-1v-1.6
			c0-0.4-0.1-0.8-0.4-1c-0.3-0.3-0.6-0.4-1.1-0.4h-6.7V127.4z"/>
	</g>
	<g>
		<path class="st8" d="M311.9,133.6c-0.8,0-1.4-0.3-1.9-0.8c-0.5-0.5-0.8-1.2-0.8-1.9v-9.4h1.7v9.2c0,0.4,0.1,0.8,0.4,1
			c0.3,0.3,0.6,0.4,1,0.4h8.5v1.5H311.9z"/>
	</g>
	<g>
		<path class="st8" d="M331.3,121.4h1.7v12.2h-1.7V121.4z"/>
	</g>
	<g>
		<path class="st8" d="M356.3,121.4v1.5h-8.5c-0.4,0-0.8,0.1-1,0.4s-0.4,0.6-0.4,1v2.1h8.3v1.5h-8.3v5.5h-1.7v-9.4
			c0-0.8,0.3-1.4,0.8-1.9c0.5-0.5,1.2-0.8,1.9-0.8H356.3z"/>
	</g>
	<g>
		<path class="st8" d="M368.6,121.4l4.4,5.4l4.4-5.4h2.2l-5.8,6.9v5.2h-1.7v-5.2l-5.8-6.9H368.6z"/>
	</g>
	<g>
		<path class="st8" d="M390.7,132v1.5H389V132H390.7z"/>
	</g>
	<g>
		<path class="st8" d="M414.3,121.4v1.5h-8.5c-0.4,0-0.8,0.1-1,0.4s-0.4,0.6-0.4,1v2.1h8.3v1.5h-8.3v2.5c0,0.4,0.1,0.8,0.4,1
			c0.3,0.3,0.6,0.4,1,0.4h8.5v1.5h-8.9c-0.8,0-1.4-0.3-1.9-0.8c-0.5-0.5-0.8-1.2-0.8-1.9v-6.7c0-0.8,0.3-1.4,0.8-1.9
			c0.5-0.5,1.2-0.8,1.9-0.8H414.3z"/>
	</g>
	<g>
		<path class="st8" d="M427.3,121.4l5.4,10.6l5.4-10.6h1.9l-6.3,12.2h-2l-6.3-12.2H427.3z"/>
	</g>
	<g>
		<path class="st8" d="M459.5,121.4c0.8,0,1.4,0.3,2,0.8c0.5,0.5,0.8,1.2,0.8,1.9v6.7c0,0.8-0.3,1.4-0.8,1.9c-0.5,0.5-1.2,0.8-2,0.8
			h-7.4c-0.8,0-1.4-0.3-1.9-0.8c-0.5-0.5-0.8-1.2-0.8-1.9v-6.7c0-0.8,0.3-1.4,0.8-1.9c0.5-0.5,1.2-0.8,1.9-0.8H459.5z M451.5,123.3
			c-0.3,0.3-0.4,0.6-0.4,1.1v6.2c0,0.4,0.1,0.8,0.4,1c0.3,0.3,0.6,0.4,1,0.4h6.6c0.4,0,0.8-0.1,1.1-0.4c0.3-0.3,0.4-0.6,0.4-1v-6.2
			c0-0.4-0.1-0.8-0.4-1c-0.3-0.3-0.6-0.4-1.1-0.4h-6.6C452.1,122.9,451.8,123,451.5,123.3z"/>
	</g>
	<g>
		<path class="st8" d="M476.6,133.6c-0.8,0-1.4-0.3-1.9-0.8c-0.5-0.5-0.8-1.2-0.8-1.9v-9.4h1.7v9.2c0,0.4,0.1,0.8,0.4,1
			c0.3,0.3,0.6,0.4,1,0.4h8.5v1.5H476.6z"/>
	</g>
	<g>
		<path class="st8" d="M497.5,121.4l5.4,10.6l5.4-10.6h1.9l-6.3,12.2h-2l-6.3-12.2H497.5z"/>
	</g>
	<g>
		<path class="st8" d="M531.2,121.4v1.5h-8.5c-0.4,0-0.8,0.1-1,0.4s-0.4,0.6-0.4,1v2.1h8.3v1.5h-8.3v2.5c0,0.4,0.1,0.8,0.4,1
			c0.3,0.3,0.6,0.4,1,0.4h8.5v1.5h-8.9c-0.8,0-1.4-0.3-1.9-0.8c-0.5-0.5-0.8-1.2-0.8-1.9v-6.7c0-0.8,0.3-1.4,0.8-1.9
			c0.5-0.5,1.2-0.8,1.9-0.8H531.2z"/>
	</g>
	<path class="st12" d="M237,98.4c0,1.8,1,3.6,2.8,3.6h43.1c4,0,4-7,0-7h-42.5C238.3,95,237,96.3,237,98.4"/>
	<path class="st12" d="M237,77.5c0,1.8,1,3.6,2.8,3.6h43.1c4,0,4-7,0-7h-42.5C238.3,74.2,237,75.5,237,77.5"/>
	<path class="st9" d="M46.8,56.4v42c0,1.9,1,3.4,2.8,3.4h43.1c3.7,0,4.2-7-0.6-7H53.8V81h38.3c3.1,0,3.4-2.1,3.4-3.9
		c0-2.8-2-3.4-4.8-3.4H53.8V60h38.9c3.7,0,4.2-7-0.6-7h-42C48,53.1,46.8,54.2,46.8,56.4"/>
	<path class="st9" d="M296.9,56.1v43.1c0,3.9,7,3.7,7,0V81.3h15.7c0.8,0,2.3,1.9,2.9,2.4l15.9,15.9c1.7,1.7,4,4.1,6.7,0.4
		c2.2-3-1.9-5.6-4.9-8.7l-10-10.1c8.1,0,14.3-2.8,15.3-10.7c0.7-5.4,0.3-10.5-3.9-14.4c-2.7-2.5-6.9-3.1-12-3.1
		c-4.4,0-29.3-0.5-31.3,0.6C297.6,54,296.9,55.1,296.9,56.1 M332.4,74h-28.5V60.3h28.3c4.8,0,6.4,2.9,6.4,7.3
		C338.6,71.5,336.3,74,332.4,74z"/>
	<path class="st9" d="M483.8,65.6c0,5.2,0.1,10.4,5,13.4c3.5,2.2,7.2,2.2,12.9,2.2c5,0,10.1,0,15.1,0c3.6,0,6.7,0,8,3.5
		c1.5,3.9,0.7,9.6-5.2,10.2c-3.5,0.4-25.6-0.1-32.2,0c-5.3,0.1-4.3,7-0.8,7h33.6c7.2,0,12.3-5,12.3-12.9c0-5.2-0.7-9.5-4.6-12.5
		c-3.1-2.3-7.4-2.6-12.8-2.6c-5.1,0-10.3,0-15.4,0c-4.6,0-9,0.1-9-7c0-4.4,2.2-6.1,6.2-6.6c3-0.4,26,0.1,32.1-0.1c4.6-0.1,4.5-7,0-7
		h-32.4C488.8,53.3,483.8,58.4,483.8,65.6"/>
	<path class="st9" d="M359.3,65.6c0,5.2,0.1,10.4,5,13.4c3.5,2.2,7.2,2.2,12.9,2.2c5,0,10.1,0,15.1,0c3.6,0,6.7,0,8,3.5
		c1.5,3.9,0.7,9.6-5.2,10.2c-3.5,0.4-25.6-0.1-32.2,0c-5.3,0.1-4.3,7-0.8,7h33.6c7.2,0,12.3-5,12.3-12.9c0-12.5-5.5-15.1-17.3-15.1
		c-5.1,0-10.3,0-15.4,0c-4.6,0-9,0.1-9-7c0-1.7,0.7-3.9,1.6-4.8c3-3,12.6-1.9,17.4-1.9l19.3,0c4.6-0.1,4.5-7,0-7h-32.4
		c-3.8,0-7.3,1.4-9.3,3.3C360.7,58.6,359.3,62.5,359.3,65.6"/>
	<path class="st9" d="M172.4,56.1v43.1c0,3.8,7,3.8,7,0V81.3h34.7c0,3-0.3,17.1,0.5,19.1c0.8,2,6.8,2.9,6.8-1.8v-42
		c0-3-2-3.4-4.2-3.4c-2.5,0-3.1,2.5-3.1,5V74h-34.7V56.1C179.4,52.4,172.4,52.4,172.4,56.1"/>
	<path class="st9" d="M110.1,56.1c0,1.6-0.1,4.2,2.8,4.2H131v38.9c0,3.9,7,3.7,7,0V60.3h18.2c3.5,0,4.3-7-0.6-7h-42.2
		C111.6,53.3,110.1,54.4,110.1,56.1"/>
	<path class="st9" d="M421.4,57c0,2.4,6,7.5,7.8,9.3c3,3,5.7,5.7,8.7,8.7c5.5,5.5,4.3,2.4,4.3,13.1c0,2.9,0,5.8,0,8.7
		c0,4.8,1,5.3,4.5,5.3c2.3,0,2.8-2.1,2.8-4.5l0-14.6c0-4.2-0.5-3.3,1.7-5.5l18.2-18.2c2.6-3.5-1.6-7.5-5.3-4.7
		c-2.7,2-16,16.6-18.3,18.1c-1.5-1-4.5-4.3-5.9-5.8L428,55.1C423.9,50.8,421.4,56.4,421.4,57"/>
	<path class="st9" d="M221.1,36.8c0,2.3,0.8,3.9,3.4,3.9h58.5c4,0,4-7,0-7h-58.5C222.3,33.8,221.1,35.2,221.1,36.8"/>
	<path class="st9" d="M237,56.7c0,1.8,1,3.6,2.8,3.6h43.1c4,0,4-7,0-7h-42.5C238.3,53.3,237,54.7,237,56.7"/>
	<path class="st8" d="M540.1,41.6h2.1c0.4,0,0.8,0,1.1-0.1c0.3-0.1,0.4-0.2,0.6-0.4c0.1-0.2,0.2-0.4,0.2-0.7c0-0.4-0.1-0.6-0.4-0.9
		c-0.3-0.2-0.7-0.3-1.2-0.3h-2.4V41.6z M539.1,45.8v-7.4h3.3c0.7,0,1.2,0.1,1.5,0.2c0.3,0.1,0.6,0.4,0.8,0.7
		c0.2,0.3,0.3,0.7,0.3,1.1c0,0.5-0.2,1-0.5,1.3c-0.3,0.4-0.9,0.6-1.6,0.7c0.3,0.1,0.5,0.2,0.6,0.4c0.3,0.3,0.6,0.6,0.8,1l1.3,2h-1.2
		l-1-1.5c-0.3-0.4-0.5-0.8-0.7-1c-0.2-0.2-0.4-0.4-0.5-0.5c-0.1-0.1-0.3-0.2-0.4-0.2c-0.1,0-0.3,0-0.5,0h-1.1v3.3H539.1z"/>
	<path class="st8" d="M546.9,37.4c-1.3-1.3-3-2-4.9-2c-1.9,0-3.7,0.8-4.9,2c-1.3,1.3-2,3-2,4.9c0,1.9,0.8,3.7,2,4.9
		c1.3,1.3,3,2,4.9,2c1.9,0,3.7-0.8,4.9-2c1.3-1.3,2-3,2-4.9C548.9,40.4,548.1,38.6,546.9,37.4 M541.9,34.6c2.1,0,4,0.9,5.4,2.3
		c1.4,1.4,2.3,3.3,2.3,5.4c0,2.1-0.9,4-2.3,5.4c-1.4,1.4-3.3,2.3-5.4,2.3c-2.1,0-4-0.9-5.4-2.3c-1.4-1.4-2.3-3.3-2.3-5.4
		c0-2.1,0.9-4,2.3-5.4C537.9,35.5,539.8,34.6,541.9,34.6z"/>
	<path class="st9" d="M253.7,77.5c0,1.8,1,3.6,2.8,3.6h26.4c4,0,4-7,0-7h-25.8C255,74.2,253.7,75.5,253.7,77.5"/>
	<path class="st9" d="M269.3,98.4c0,1.8,1,3.6,2.8,3.6h10.8c4,0,4-7,0-7h-10.2C270.6,95,269.3,96.3,269.3,98.4"/>
</g>
</svg>
